<svg id="splitsvg" version="1.1" xmlns="http://www.w3.org/2000/svg" xmlns:xlink="http://www.w3.org/1999/xlink" width="1380" height="860"><g id="svgg"><path id="path0" d="M153.629 181.854 C 152.355 183.474,152.328 217.128,153.600 218.400 C 156.000 220.800,158.400 218.722,158.400 214.245 C 158.400 207.502,161.331 207.432,166.177 214.060 C 169.190 218.180,170.410 219.200,172.329 219.200 C 176.174 219.200,175.674 217.362,169.823 210.000 C 165.601 204.688,165.596 204.208,169.704 199.687 C 174.223 194.715,174.520 193.600,171.325 193.600 C 169.353 193.600,168.586 194.117,165.000 197.864 C 159.429 203.684,158.677 202.882,158.400 190.819 C 158.179 181.224,158.068 180.800,155.780 180.800 C 154.828 180.800,154.226 181.095,153.629 181.854 M191.255 184.004 C 186.328 185.048,183.162 188.454,182.871 193.022 C 182.558 197.938,184.889 200.634,191.830 203.381 C 204.699 208.474,201.767 217.390,188.149 214.577 C 183.497 213.616,180.993 216.361,184.606 218.462 C 190.931 222.141,203.472 219.446,205.780 213.913 C 208.413 207.600,205.398 202.780,196.569 199.187 C 190.246 196.615,188.447 194.577,189.749 191.461 C 190.802 188.939,193.866 188.033,198.762 188.794 C 202.669 189.402,203.600 189.049,203.600 186.963 C 203.600 184.468,196.782 182.833,191.255 184.004 M58.052 184.412 C 54.405 184.942,54.616 183.954,54.486 201.152 C 54.337 220.997,53.707 219.829,64.396 219.500 C 77.395 219.099,83.075 214.834,84.411 204.469 C 86.282 189.948,75.645 181.854,58.052 184.412 M70.977 189.880 C 81.579 193.289,80.445 211.006,69.420 214.211 C 61.447 216.529,60.254 214.686,60.470 200.381 C 60.649 188.483,62.106 187.028,70.977 189.880 M100.592 193.496 C 86.531 198.528,91.355 221.780,106.055 219.830 C 113.557 218.835,117.000 214.611,117.000 206.400 C 117.000 196.304,109.414 190.339,100.592 193.496 M133.333 193.521 C 122.901 197.224,121.443 213.365,131.098 218.268 C 137.413 221.475,147.285 219.685,143.600 216.000 C 142.933 215.333,142.267 215.200,139.584 215.200 C 132.621 215.200,128.988 210.263,130.959 203.481 C 132.181 199.277,134.504 197.633,139.780 197.239 C 142.831 197.011,143.002 196.947,143.372 195.891 C 144.330 193.158,138.341 191.743,133.333 193.521 M221.838 193.458 C 211.208 196.721,210.964 215.330,221.502 218.984 C 227.120 220.933,235.200 219.773,235.200 217.018 C 235.200 215.472,234.457 215.200,230.220 215.198 C 223.796 215.194,220.800 213.748,220.800 210.649 C 220.800 208.168,221.825 207.824,229.699 207.659 C 237.698 207.492,237.918 207.369,237.445 203.342 C 236.507 195.365,229.690 191.048,221.838 193.458 M251.653 193.250 C 246.128 194.168,246.200 193.982,246.200 207.336 L 246.200 217.671 247.144 218.436 C 248.346 219.408,249.654 219.408,250.856 218.436 C 251.786 217.683,251.803 217.538,252.000 208.600 L 252.200 199.529 253.322 198.564 C 254.221 197.792,254.898 197.599,256.722 197.594 C 259.876 197.586,261.000 196.954,261.000 195.188 C 261.000 192.999,257.516 192.276,251.653 193.250 M305.481 193.353 C 294.608 197.403,293.776 213.840,304.200 218.666 C 309.675 221.200,319.701 219.705,318.528 216.529 C 318.087 215.336,317.594 215.213,313.200 215.197 C 307.452 215.177,304.000 213.460,304.000 210.623 C 304.000 208.209,305.913 207.623,313.838 207.610 C 320.381 207.598,320.800 207.402,320.800 204.341 C 320.800 196.305,312.855 190.606,305.481 193.353 M334.400 193.414 C 329.448 194.308,329.600 193.883,329.600 206.822 C 329.600 218.763,329.697 219.208,332.300 219.194 C 334.927 219.179,335.200 218.226,335.200 209.086 C 335.200 198.659,335.676 197.600,340.361 197.600 C 342.769 197.600,344.257 196.991,344.546 195.887 C 345.263 193.143,341.279 192.172,334.400 193.414 M267.280 194.080 C 266.493 194.867,266.711 196.110,268.541 201.281 C 277.031 225.276,279.895 225.495,288.117 202.773 C 291.014 194.769,291.001 193.600,288.021 193.600 C 285.851 193.600,285.145 194.657,283.213 200.800 C 279.551 212.441,277.756 212.377,274.021 200.475 C 273.102 197.546,272.001 194.801,271.575 194.375 C 270.693 193.493,268.048 193.312,267.280 194.080 M228.793 198.052 C 232.996 200.614,231.967 204.239,226.914 204.672 C 222.136 205.081,219.430 203.006,221.000 200.136 C 222.514 197.370,226.101 196.411,228.793 198.052 M312.593 198.159 C 316.969 201.026,314.221 205.180,308.286 204.672 C 305.127 204.401,304.000 203.610,304.000 201.666 C 304.000 198.125,309.263 195.977,312.593 198.159 M108.041 198.515 C 114.143 202.626,111.668 215.227,104.765 215.193 C 97.724 215.159,95.412 202.230,101.755 198.362 C 103.515 197.289,106.322 197.358,108.041 198.515  M -25 0 L -5 0 L -5 20 L -25 20 Z M 405 0 L 425 0 L 425 20 L 405 20 Z" stroke="none" fill="#f9f9f9" fill-rule="evenodd" transform="translate(30,0)"></path><path id="path1" d="M0.000 200.000 L 0.000 400.000 200.000 400.000 L 400.000 400.000 400.000 200.000 L 400.000 0.000 200.000 0.000 L 0.000 0.000 0.000 200.000 M159.498 178.481 C 160.883 179.630,161.200 181.430,161.200 188.154 C 161.200 197.015,161.651 197.761,164.761 194.046 C 166.916 191.472,168.592 190.712,172.163 190.689 C 179.363 190.643,179.480 193.015,172.650 200.563 C 169.485 204.061,169.287 204.914,171.131 207.125 C 171.807 207.936,173.820 210.625,175.604 213.100 C 179.358 218.309,179.248 218.252,180.122 215.479 C 181.499 211.112,182.528 210.760,190.248 212.018 C 198.187 213.312,199.332 209.377,191.876 206.426 C 183.124 202.961,179.823 199.394,179.823 193.400 C 179.823 185.594,187.203 180.239,197.000 180.937 C 205.379 181.534,208.351 184.345,206.023 189.473 C 204.797 192.173,203.458 192.640,199.389 191.786 C 191.974 190.230,189.733 193.286,196.292 196.009 C 208.655 201.139,212.100 206.625,208.345 215.200 C 204.994 222.852,188.581 225.609,180.964 219.799 L 179.552 218.723 178.226 220.256 C 175.177 223.783,168.957 222.605,165.551 217.854 C 162.398 213.458,161.200 213.074,161.200 216.462 C 161.200 221.499,154.825 224.207,151.289 220.672 L 150.200 219.582 150.100 200.691 C 149.992 180.391,149.969 180.642,152.074 179.080 C 154.011 177.642,158.089 177.313,159.498 178.481 M72.932 182.171 C 85.335 185.550,91.076 198.714,85.572 211.157 C 82.082 219.046,75.782 222.182,63.400 222.193 C 51.044 222.204,51.836 223.528,51.683 202.601 C 51.557 185.274,51.664 184.170,53.615 182.723 C 55.716 181.166,67.956 180.816,72.932 182.171 M111.222 191.333 C 125.205 197.948,122.573 219.663,107.452 222.450 C 93.464 225.027,83.993 208.419,92.445 196.134 C 96.249 190.605,104.970 188.376,111.222 191.333 M144.200 191.048 C 149.361 193.727,146.743 200.180,140.477 200.226 C 135.545 200.262,134.000 201.403,133.392 205.458 C 132.698 210.087,135.046 212.400,140.440 212.400 C 145.681 212.400,147.200 213.585,147.200 217.671 C 147.200 225.149,130.095 224.296,124.767 216.552 C 118.438 207.353,122.442 194.190,132.600 190.801 C 135.879 189.707,141.862 189.835,144.200 191.048 M232.488 191.365 C 240.409 195.111,243.281 207.622,236.879 210.486 L 235.158 211.256 236.550 212.797 C 241.959 218.785,235.314 224.087,224.395 222.496 C 212.652 220.784,207.163 209.070,212.861 197.882 C 216.336 191.060,225.449 188.034,232.488 191.365 M261.053 190.624 C 262.714 190.967,264.614 191.129,265.274 190.984 C 271.314 189.657,274.260 191.221,275.786 196.567 C 278.237 205.155,278.891 205.234,281.420 197.249 C 283.268 191.412,285.259 189.933,290.083 190.815 C 294.774 191.673,294.540 194.365,288.433 209.800 C 284.401 219.990,282.796 222.000,278.693 222.000 C 273.941 222.000,271.713 218.684,266.404 203.705 C 264.765 199.081,264.520 198.856,262.075 199.732 C 261.044 200.102,259.176 200.403,257.924 200.402 C 254.923 200.399,255.033 200.065,254.791 210.000 C 254.522 221.052,254.064 222.000,249.000 222.000 C 243.806 222.000,243.436 221.160,243.266 209.000 C 243.090 196.479,243.286 194.634,244.965 192.955 C 247.498 190.422,254.889 189.350,261.053 190.624 M313.845 190.591 C 322.956 193.297,327.569 207.764,320.217 210.572 L 318.332 211.292 319.518 212.546 C 323.024 216.254,322.276 220.483,317.878 221.809 C 303.860 226.036,292.142 216.941,294.353 203.550 C 295.989 193.645,304.678 187.869,313.845 190.591 M343.245 190.398 C 350.236 191.690,348.840 200.400,341.643 200.400 C 338.029 200.400,338.000 200.478,338.000 210.102 C 338.000 219.024,337.726 220.301,335.569 221.416 C 333.335 222.571,329.386 222.082,327.947 220.471 L 326.800 219.187 326.801 207.094 C 326.803 195.669,326.848 194.927,327.610 193.676 C 329.266 190.960,337.238 189.288,343.245 190.398 M64.926 192.004 C 63.295 192.659,63.149 193.583,63.278 202.448 C 63.420 212.219,63.429 212.244,66.946 211.847 C 73.844 211.067,77.459 203.899,74.534 196.800 C 73.144 193.425,67.901 190.808,64.926 192.004 M102.664 201.221 C 99.815 203.462,100.467 210.702,103.636 212.015 C 106.873 213.356,109.666 208.701,108.413 204.050 C 107.514 200.711,104.929 199.440,102.664 201.221 M225.287 200.862 C 225.495 201.485,226.390 201.594,226.421 201.000 C 226.433 200.780,226.142 200.538,225.775 200.462 C 225.358 200.375,225.175 200.525,225.287 200.862 M308.617 200.772 C 308.491 200.977,308.570 201.258,308.793 201.396 C 309.271 201.691,310.000 201.317,310.000 200.776 C 310.000 200.290,308.917 200.287,308.617 200.772 M226.184 211.227 C 225.727 211.965,226.391 212.200,228.933 212.200 C 231.837 212.200,233.310 211.767,232.389 211.185 C 231.574 210.669,226.507 210.703,226.184 211.227 M309.412 211.180 C 308.744 212.261,312.199 212.734,315.000 211.945 C 316.364 211.561,316.482 211.447,315.800 211.175 C 314.663 210.722,309.693 210.725,309.412 211.180  M -25 0 L -5 0 L -5 20 L -25 20 Z M 405 0 L 425 0 L 425 20 L 405 20 Z" stroke="none" fill="#040404" fill-rule="evenodd" transform="translate(490,0)"></path><path id="path2" d="M154.674 177.970 C 152.880 178.338,151.201 179.491,150.500 180.839 C 150.116 181.577,150.023 186.189,150.100 200.691 L 150.200 219.582 151.289 220.672 C 154.825 224.207,161.200 221.499,161.200 216.462 C 161.200 213.074,162.398 213.458,165.551 217.854 C 168.957 222.605,175.177 223.783,178.226 220.256 L 179.552 218.723 180.964 219.799 C 188.581 225.609,204.994 222.852,208.345 215.200 C 212.100 206.625,208.655 201.139,196.292 196.009 C 189.733 193.286,191.974 190.230,199.389 191.786 C 207.474 193.483,210.247 184.193,202.366 181.817 C 190.889 178.358,179.823 184.044,179.823 193.400 C 179.823 199.394,183.124 202.961,191.876 206.426 C 199.332 209.377,198.187 213.312,190.248 212.018 C 182.528 210.760,181.499 211.112,180.122 215.479 C 179.248 218.252,179.358 218.309,175.604 213.100 C 173.820 210.625,171.807 207.936,171.131 207.125 C 169.287 204.914,169.485 204.061,172.650 200.563 C 174.163 198.892,175.895 196.879,176.500 196.091 C 181.081 190.122,169.706 188.141,164.761 194.046 C 161.651 197.761,161.200 197.015,161.200 188.154 C 161.200 178.519,160.132 176.851,154.674 177.970 M159.038 180.041 C 159.720 180.794,159.821 181.747,160.000 189.141 C 160.260 199.894,160.469 200.182,164.812 195.770 C 168.080 192.449,168.950 192.000,172.118 192.000 C 176.873 192.000,177.155 193.801,173.095 198.244 C 167.514 204.353,167.499 204.409,170.385 208.077 C 176.437 215.766,177.715 218.322,176.243 219.793 C 174.115 221.922,169.314 220.943,167.120 217.934 C 163.854 213.452,162.998 212.427,162.140 211.968 C 160.718 211.207,160.327 211.879,159.995 215.653 C 159.546 220.759,155.571 222.833,152.369 219.631 L 151.200 218.462 151.214 200.331 C 151.229 180.931,151.235 180.872,153.244 179.758 C 154.818 178.886,158.138 179.048,159.038 180.041 M57.215 181.609 C 51.541 182.401,51.536 182.418,51.683 202.601 C 51.836 223.528,51.044 222.204,63.400 222.193 C 81.213 222.177,89.859 213.020,87.031 197.166 C 84.905 185.252,73.555 179.330,57.215 181.609 M201.878 182.985 C 205.420 184.064,206.520 186.513,204.686 189.241 C 203.579 190.888,202.781 191.040,198.600 190.399 C 189.133 188.948,188.209 194.228,197.312 197.756 C 205.032 200.747,207.707 203.721,207.933 209.568 C 208.223 217.090,203.849 220.936,194.400 221.466 C 184.157 222.041,178.337 218.037,182.651 213.383 C 183.746 212.201,183.747 212.201,189.746 213.214 C 195.638 214.208,199.207 212.281,197.776 208.878 C 197.216 207.547,195.551 206.551,190.600 204.585 C 183.860 201.909,181.186 198.655,181.209 193.154 C 181.243 184.773,191.377 179.788,201.878 182.985 M69.709 182.808 C 91.198 185.915,92.496 216.123,71.334 220.607 C 65.224 221.901,55.878 221.260,54.037 219.419 L 53.000 218.383 52.875 202.891 C 52.741 186.345,52.872 184.895,54.612 183.755 C 56.478 182.533,64.379 182.037,69.709 182.808 M99.800 190.798 C 90.502 193.914,86.527 205.183,91.360 214.722 C 96.851 225.557,113.286 225.255,118.448 214.223 C 124.867 200.505,113.487 186.210,99.800 190.798 M132.600 190.801 C 122.442 194.190,118.438 207.353,124.767 216.552 C 130.095 224.296,147.200 225.149,147.200 217.671 C 147.200 213.585,145.681 212.400,140.440 212.400 C 135.046 212.400,132.698 210.087,133.392 205.458 C 134.000 201.403,135.545 200.262,140.477 200.226 C 145.361 200.191,147.840 197.247,146.329 193.278 C 145.178 190.254,138.080 188.973,132.600 190.801 M221.714 190.554 C 205.484 195.876,207.511 220.035,224.395 222.496 C 235.314 224.087,241.959 218.785,236.550 212.797 L 235.158 211.256 236.879 210.486 C 239.799 209.180,240.205 208.434,240.164 204.456 C 240.059 194.368,230.970 187.520,221.714 190.554 M251.600 190.402 C 243.297 191.823,243.034 192.411,243.266 209.000 C 243.436 221.160,243.806 222.000,249.000 222.000 C 254.064 222.000,254.522 221.052,254.791 210.000 C 255.033 200.065,254.923 200.399,257.924 200.402 C 259.176 200.403,261.044 200.102,262.075 199.732 C 264.520 198.856,264.765 199.081,266.404 203.705 C 271.713 218.684,273.941 222.000,278.693 222.000 C 282.796 222.000,284.401 219.990,288.433 209.800 C 294.540 194.365,294.774 191.673,290.083 190.815 C 285.259 189.933,283.268 191.412,281.420 197.249 C 278.891 205.234,278.237 205.155,275.786 196.567 C 274.260 191.221,271.314 189.657,265.274 190.984 C 264.614 191.129,262.714 190.967,261.053 190.624 C 257.871 189.966,254.595 189.890,251.600 190.402 M304.520 190.745 C 289.268 196.015,291.105 219.493,307.000 222.446 C 318.257 224.536,325.466 218.836,319.518 212.546 L 318.332 211.292 320.217 210.572 C 322.772 209.597,323.597 208.182,323.599 204.773 C 323.604 194.254,314.257 187.380,304.520 190.745 M334.200 190.585 C 326.731 191.952,326.803 191.790,326.801 207.094 L 326.800 219.187 327.947 220.471 C 329.386 222.082,333.335 222.571,335.569 221.416 C 337.726 220.301,338.000 219.024,338.000 210.102 C 338.000 200.478,338.029 200.400,341.643 200.400 C 345.739 200.400,347.600 198.657,347.600 194.819 C 347.600 190.690,342.473 189.070,334.200 190.585 M64.542 190.669 C 62.379 191.113,62.210 191.812,62.068 200.941 C 61.873 213.483,63.210 215.262,70.529 212.204 C 81.738 207.521,76.377 188.239,64.542 190.669 M110.800 192.462 C 116.489 195.083,119.695 201.566,118.783 208.600 C 116.567 225.683,93.432 225.939,90.790 208.910 C 88.904 196.757,100.118 187.539,110.800 192.462 M142.126 191.628 C 147.483 193.116,146.065 198.971,140.336 199.024 C 134.505 199.078,132.262 201.129,132.244 206.422 C 132.227 211.509,134.494 213.600,140.026 213.600 C 144.779 213.600,146.000 214.378,146.000 217.406 C 146.000 223.080,132.578 223.009,126.969 217.306 C 122.166 212.423,121.871 202.119,126.371 196.437 C 129.726 192.200,136.615 190.098,142.126 191.628 M232.116 192.541 C 237.769 195.307,241.291 204.447,238.086 208.035 L 236.866 209.400 230.248 209.541 C 223.420 209.686,222.387 209.948,222.942 211.393 C 223.568 213.023,225.612 213.628,230.200 213.538 C 235.242 213.439,236.121 213.743,236.807 215.820 C 239.152 222.926,221.662 223.792,215.571 216.872 C 211.205 211.912,210.902 202.743,214.910 196.858 C 218.472 191.628,226.257 189.675,232.116 192.541 M262.084 192.374 C 263.845 193.168,264.065 193.184,265.433 192.612 C 270.692 190.415,273.045 191.931,275.225 198.921 C 278.252 208.624,279.183 208.597,282.201 198.717 C 283.918 193.095,284.882 192.000,288.117 192.000 C 293.285 192.000,293.149 194.812,287.272 209.450 C 283.196 219.604,282.421 220.600,278.600 220.600 C 274.487 220.600,273.428 219.001,268.135 204.800 C 265.044 196.508,264.525 195.760,262.907 197.269 C 261.218 198.845,260.262 199.200,257.703 199.200 C 253.722 199.200,253.836 198.922,253.573 209.267 C 253.449 214.180,253.202 218.522,253.025 218.915 C 251.822 221.586,245.682 221.266,244.906 218.493 C 244.341 216.475,244.537 195.837,245.131 194.728 C 246.817 191.581,257.143 190.147,262.084 192.374 M315.091 192.382 C 319.361 194.238,321.962 198.348,322.297 203.767 C 322.619 208.983,321.644 209.569,312.600 209.597 C 306.955 209.614,306.261 209.800,306.465 211.245 C 306.715 213.015,308.780 213.642,313.935 213.514 C 318.467 213.401,318.471 213.402,319.435 214.523 C 325.692 221.797,306.511 224.484,299.361 217.335 C 288.159 206.132,300.756 186.149,315.091 192.382 M344.456 192.000 C 348.590 193.912,346.476 198.880,341.420 199.135 C 336.905 199.363,337.041 199.046,336.800 209.876 L 336.600 218.871 335.478 219.835 C 333.768 221.305,330.745 221.207,329.169 219.631 L 328.000 218.462 328.000 206.861 L 328.000 195.261 329.029 194.038 C 331.036 191.653,340.891 190.351,344.456 192.000 M70.232 192.633 C 77.015 195.050,77.308 207.553,70.657 210.772 C 64.314 213.843,63.429 212.844,63.278 202.448 C 63.114 191.170,63.721 190.313,70.232 192.633 M223.947 199.404 C 222.157 200.377,222.045 202.105,223.737 202.645 C 225.085 203.076,227.970 202.923,228.616 202.387 C 230.882 200.506,226.763 197.874,223.947 199.404 M307.639 199.306 C 304.314 201.016,306.652 203.690,310.678 202.782 C 313.046 202.248,313.301 200.486,311.169 199.384 C 309.798 198.675,308.905 198.655,307.639 199.306 M101.796 200.524 C 96.695 205.625,101.259 216.366,107.032 212.846 C 111.947 209.849,110.205 199.200,104.800 199.200 C 103.432 199.200,102.874 199.446,101.796 200.524 M106.990 201.354 C 108.924 203.287,109.286 208.191,107.659 210.400 C 105.054 213.936,101.528 212.299,100.935 207.278 C 100.328 202.134,104.090 198.454,106.990 201.354 M226.421 201.000 C 226.390 201.594,225.495 201.485,225.287 200.862 C 225.175 200.525,225.358 200.375,225.775 200.462 C 226.142 200.538,226.433 200.780,226.421 201.000 M310.000 200.776 C 310.000 201.317,309.271 201.691,308.793 201.396 C 308.570 201.258,308.491 200.977,308.617 200.772 C 308.917 200.287,310.000 200.290,310.000 200.776 M232.389 211.185 C 233.310 211.767,231.837 212.200,228.933 212.200 C 226.391 212.200,225.727 211.965,226.184 211.227 C 226.507 210.703,231.574 210.669,232.389 211.185 M315.800 211.175 C 316.482 211.447,316.364 211.561,315.000 211.945 C 312.199 212.734,308.744 212.261,309.412 211.180 C 309.693 210.725,314.663 210.722,315.800 211.175  M -25 0 L -5 0 L -5 20 L -25 20 Z M 405 0 L 425 0 L 425 20 L 405 20 Z" stroke="none" fill="#5b5b5b" fill-rule="evenodd" transform="translate(950,0)"></path><path id="path3" d="M154.525 179.627 C 151.515 180.531,151.600 179.934,151.600 200.272 L 151.600 218.436 152.582 219.418 C 155.505 222.342,159.181 220.364,159.596 215.645 C 160.103 209.881,161.477 209.814,165.584 215.351 C 169.000 219.956,169.180 220.099,171.806 220.317 C 177.886 220.821,178.098 218.733,172.685 211.661 C 166.618 203.736,166.621 204.820,172.648 198.332 C 176.322 194.376,176.438 192.695,173.071 192.190 C 170.130 191.749,168.366 192.506,165.700 195.357 C 160.182 201.256,159.869 200.951,159.600 189.399 C 159.363 179.252,158.878 178.318,154.525 179.627 M157.651 181.460 C 158.064 181.957,158.249 184.270,158.400 190.819 C 158.677 202.882,159.429 203.684,165.000 197.864 C 168.586 194.117,169.353 193.600,171.325 193.600 C 174.520 193.600,174.223 194.715,169.704 199.687 C 165.596 204.208,165.601 204.688,169.823 210.000 C 175.674 217.362,176.174 219.200,172.329 219.200 C 170.410 219.200,169.190 218.180,166.177 214.060 C 161.331 207.432,158.400 207.502,158.400 214.245 C 158.400 218.722,156.000 220.800,153.600 218.400 C 152.328 217.128,152.355 183.474,153.629 181.854 C 154.604 180.615,156.772 180.403,157.651 181.460 M190.033 183.011 C 178.597 186.215,178.531 199.375,189.926 203.993 C 191.617 204.678,193.695 205.536,194.544 205.900 C 201.773 208.996,198.473 214.801,190.200 213.542 C 183.873 212.579,183.856 212.580,182.676 213.983 C 179.054 218.287,184.415 221.559,194.343 221.104 C 203.449 220.686,207.801 217.086,207.764 210.000 C 207.732 203.880,205.086 201.044,196.200 197.604 C 187.082 194.075,190.262 188.173,200.093 190.376 C 205.746 191.643,207.310 184.872,201.751 183.199 C 199.178 182.424,192.508 182.317,190.033 183.011 M56.818 183.237 C 53.238 183.939,53.414 183.034,53.299 201.311 C 53.169 221.930,52.628 220.824,62.879 220.873 C 77.122 220.941,84.185 215.929,85.723 204.662 C 87.826 189.258,74.916 179.689,56.818 183.237 M201.781 184.750 C 203.443 185.486,203.600 185.677,203.600 186.963 C 203.600 189.049,202.669 189.402,198.762 188.794 C 193.866 188.033,190.802 188.939,189.749 191.461 C 188.447 194.577,190.246 196.615,196.569 199.187 C 205.398 202.780,208.413 207.600,205.780 213.913 C 203.472 219.446,190.931 222.141,184.606 218.462 C 180.993 216.361,183.497 213.616,188.149 214.577 C 194.740 215.938,199.156 214.575,199.832 210.969 C 200.394 207.976,198.211 205.906,191.830 203.381 C 183.261 199.989,180.479 194.583,184.216 188.585 C 186.996 184.124,195.946 182.170,201.781 184.750 M70.568 184.592 C 88.146 187.725,90.158 213.001,73.263 218.450 C 66.806 220.532,55.742 219.878,54.784 217.358 C 54.033 215.383,54.461 186.167,55.252 185.376 C 56.572 184.057,65.109 183.620,70.568 184.592 M63.302 189.230 C 60.816 189.980,60.615 190.773,60.470 200.381 C 60.277 213.160,60.645 214.355,64.876 214.706 C 74.559 215.509,80.601 206.532,77.315 196.223 C 75.743 191.292,68.480 187.667,63.302 189.230 M71.400 191.497 C 78.681 195.272,78.773 208.341,71.545 212.028 C 67.968 213.853,63.383 213.836,62.397 211.994 C 61.473 210.267,61.908 192.351,62.900 191.284 C 64.065 190.032,68.803 190.151,71.400 191.497 M100.800 191.952 C 85.332 197.020,88.640 221.032,104.800 220.990 C 123.052 220.943,123.640 192.320,105.400 191.739 C 103.420 191.676,101.350 191.771,100.800 191.952 M132.368 192.515 C 120.196 197.644,120.351 216.588,132.596 220.370 C 139.290 222.437,145.600 220.933,145.600 217.270 C 145.600 214.717,144.547 214.098,139.928 213.936 C 133.878 213.724,132.200 212.088,132.200 206.400 C 132.200 200.918,134.230 198.800,139.485 198.800 C 143.804 198.800,145.982 196.854,144.815 194.037 C 143.776 191.527,136.750 190.668,132.368 192.515 M220.803 192.485 C 212.270 195.760,209.503 209.540,215.913 216.840 C 221.800 223.544,239.495 222.352,236.356 215.463 C 235.664 213.944,234.477 213.636,230.288 213.886 C 225.848 214.150,223.021 213.219,222.548 211.334 C 222.114 209.604,222.785 209.413,230.053 209.200 L 236.870 209.000 237.835 207.878 C 239.544 205.890,238.839 200.110,236.459 196.600 C 233.415 192.110,226.508 190.295,220.803 192.485 M250.483 192.152 C 244.897 193.301,244.769 193.647,244.896 207.268 L 245.000 218.337 245.970 219.368 C 247.371 220.859,250.629 220.859,252.030 219.369 C 252.983 218.355,253.003 218.183,253.200 209.333 C 253.435 198.735,253.408 198.800,257.625 198.800 C 260.504 198.800,261.545 198.349,262.759 196.578 C 264.385 194.205,264.696 194.617,267.922 203.415 C 273.279 218.027,274.758 220.400,278.506 220.400 C 282.292 220.400,282.908 219.561,287.316 208.400 C 292.364 195.621,292.712 193.624,290.081 192.525 C 286.244 190.921,284.509 192.525,282.206 199.802 C 279.234 209.193,277.957 209.192,275.190 199.800 C 272.870 191.924,270.266 190.193,265.332 193.242 L 264.026 194.049 262.133 192.940 C 259.878 191.618,254.760 191.272,250.483 192.152 M304.800 192.260 C 294.337 195.872,292.267 212.437,301.498 218.688 C 306.282 221.927,317.867 222.037,319.568 218.860 C 321.391 215.453,319.333 213.557,314.133 213.854 C 309.553 214.115,307.524 213.604,306.238 211.867 L 305.400 210.734 306.344 209.967 C 307.178 209.290,307.967 209.200,313.057 209.200 C 321.623 209.200,322.788 208.375,322.009 202.862 C 320.793 194.260,312.969 189.439,304.800 192.260 M333.654 192.198 C 328.356 193.385,328.251 193.616,328.067 204.561 C 327.827 218.839,328.248 220.400,332.338 220.400 C 336.139 220.400,336.168 220.324,336.400 209.801 L 336.600 200.729 337.722 199.765 C 338.659 198.960,339.274 198.800,341.440 198.800 C 344.808 198.800,346.115 197.731,345.923 195.135 C 345.683 191.900,340.510 190.662,333.654 192.198 M110.542 194.154 C 119.990 198.777,119.386 215.547,109.647 218.983 C 98.633 222.869,89.119 212.808,92.953 201.329 C 95.390 194.033,103.518 190.718,110.542 194.154 M142.869 193.891 C 144.703 195.726,143.568 196.956,139.780 197.239 C 134.504 197.633,132.181 199.277,130.959 203.481 C 128.988 210.263,132.621 215.200,139.584 215.200 C 142.267 215.200,142.933 215.333,143.600 216.000 C 147.285 219.685,137.413 221.475,131.098 218.268 C 123.140 214.226,122.395 201.021,129.806 195.369 C 133.291 192.710,140.835 191.857,142.869 193.891 M229.965 193.427 C 234.009 194.628,236.866 198.414,237.445 203.342 C 237.918 207.369,237.698 207.492,229.699 207.659 C 221.825 207.824,220.800 208.168,220.800 210.649 C 220.800 213.748,223.796 215.194,230.220 215.198 C 234.457 215.200,235.200 215.472,235.200 217.018 C 235.200 219.773,227.120 220.933,221.502 218.984 C 213.045 216.052,210.818 203.118,217.602 196.334 C 220.967 192.969,225.129 191.990,229.965 193.427 M259.600 193.323 C 263.071 194.506,260.998 197.583,256.722 197.594 C 254.898 197.599,254.221 197.792,253.322 198.564 L 252.200 199.529 252.000 208.600 C 251.803 217.538,251.786 217.683,250.856 218.436 C 249.654 219.408,248.346 219.408,247.144 218.436 L 246.200 217.671 246.200 207.336 C 246.200 195.591,246.266 195.144,248.149 194.251 C 250.887 192.952,257.048 192.452,259.600 193.323 M315.184 194.229 C 318.659 196.118,320.800 199.974,320.800 204.341 C 320.800 207.402,320.381 207.598,313.838 207.610 C 305.913 207.623,304.000 208.209,304.000 210.623 C 304.000 213.460,307.452 215.177,313.200 215.197 C 317.594 215.213,318.087 215.336,318.528 216.529 C 320.205 221.068,305.464 221.026,300.663 216.477 C 296.171 212.222,295.742 202.685,299.803 197.361 C 303.204 192.901,310.144 191.488,315.184 194.229 M342.495 193.220 C 346.484 194.328,344.890 197.600,340.361 197.600 C 335.676 197.600,335.200 198.659,335.200 209.086 C 335.200 218.226,334.927 219.179,332.300 219.194 C 329.697 219.208,329.600 218.763,329.600 206.822 C 329.600 196.222,329.615 196.027,330.500 195.000 C 331.932 193.339,339.095 192.275,342.495 193.220 M271.575 194.375 C 272.001 194.801,273.102 197.546,274.021 200.475 C 277.756 212.377,279.551 212.441,283.213 200.800 C 285.145 194.657,285.851 193.600,288.021 193.600 C 291.001 193.600,291.014 194.769,288.117 202.773 C 282.373 218.648,279.757 221.869,275.836 217.900 C 274.040 216.082,266.800 198.103,266.800 195.461 C 266.800 193.532,270.003 192.803,271.575 194.375 M223.194 197.937 C 218.119 200.621,220.653 205.208,226.914 204.672 C 230.066 204.402,231.204 203.608,231.187 201.691 C 231.157 198.188,226.688 196.089,223.194 197.937 M307.000 197.642 C 303.928 199.427,302.933 202.482,304.986 203.827 C 307.486 205.465,313.215 204.794,314.373 202.727 C 316.061 199.714,310.288 195.733,307.000 197.642 M101.755 198.362 C 95.412 202.230,97.724 215.159,104.765 215.193 C 111.668 215.227,114.143 202.626,108.041 198.515 C 106.322 197.358,103.515 197.289,101.755 198.362 M227.312 198.767 C 229.515 199.604,230.397 201.945,228.826 202.786 C 227.402 203.548,223.415 203.300,222.599 202.398 C 220.858 200.475,224.475 197.688,227.312 198.767 M310.981 198.966 C 314.578 200.469,313.430 203.200,309.200 203.200 C 305.714 203.200,304.456 201.580,306.500 199.721 C 308.060 198.301,309.007 198.142,310.981 198.966 M108.035 200.234 C 111.111 203.181,110.719 210.862,107.382 213.049 C 103.539 215.567,99.410 212.011,99.434 206.204 C 99.460 200.031,104.310 196.665,108.035 200.234  M -25 0 L -5 0 L -5 20 L -25 20 Z M 405 0 L 425 0 L 425 20 L 405 20 Z" stroke="none" fill="#7c7c7c" fill-rule="evenodd" transform="translate(30,460)"></path><path id="path4" d="M153.244 179.758 C 151.235 180.872,151.229 180.931,151.214 200.331 L 151.200 218.462 152.369 219.631 C 155.541 222.803,159.546 220.758,159.987 215.743 C 160.412 210.915,160.942 210.562,163.655 213.300 L 165.339 215.000 164.053 213.322 C 161.450 209.925,160.034 210.663,159.596 215.645 C 159.181 220.364,155.505 222.342,152.582 219.418 L 151.600 218.436 151.600 200.272 C 151.600 179.934,151.518 180.511,154.525 179.641 C 155.314 179.413,155.495 179.264,155.000 179.250 C 154.560 179.238,153.770 179.467,153.244 179.758 M157.866 179.600 C 158.342 179.792,158.922 180.275,159.154 180.674 C 159.386 181.074,159.581 181.203,159.588 180.962 C 159.605 180.354,158.257 179.195,157.569 179.225 C 157.256 179.239,157.390 179.408,157.866 179.600 M159.767 189.200 C 159.767 193.490,159.826 195.245,159.898 193.100 C 159.970 190.955,159.970 187.445,159.898 185.300 C 159.826 183.155,159.767 184.910,159.767 189.200 M193.700 182.291 C 194.525 182.378,195.875 182.378,196.700 182.291 C 197.525 182.205,196.850 182.134,195.200 182.134 C 193.550 182.134,192.875 182.205,193.700 182.291 M61.715 182.696 C 62.988 182.776,64.968 182.775,66.115 182.694 C 67.262 182.614,66.220 182.549,63.800 182.550 C 61.380 182.551,60.442 182.616,61.715 182.696 M203.290 183.824 C 205.825 185.199,205.694 189.293,203.079 190.420 C 202.324 190.746,202.311 190.785,202.986 190.697 C 206.191 190.279,205.947 183.119,202.731 183.216 C 202.439 183.225,202.690 183.498,203.290 183.824 M184.780 185.466 C 183.888 186.272,182.973 187.307,182.747 187.766 C 182.520 188.224,182.807 188.022,183.384 187.316 C 183.961 186.610,185.010 185.577,185.716 185.021 C 186.422 184.464,186.866 184.007,186.701 184.004 C 186.537 184.002,185.672 184.659,184.780 185.466 M77.488 185.605 C 80.137 187.124,82.076 189.063,83.595 191.712 C 84.254 192.861,84.794 193.587,84.796 193.326 C 84.812 191.381,77.819 184.388,75.874 184.404 C 75.613 184.406,76.339 184.946,77.488 185.605 M52.982 201.800 C 52.982 210.380,53.035 213.833,53.100 209.474 C 53.164 205.114,53.164 198.094,53.099 193.874 C 53.035 189.653,52.982 193.220,52.982 201.800 M181.639 190.060 C 181.398 190.753,181.227 192.418,181.260 193.760 L 181.321 196.200 181.602 193.200 C 181.757 191.550,182.019 189.885,182.185 189.500 C 182.350 189.115,182.394 188.800,182.282 188.800 C 182.170 188.800,181.881 189.367,181.639 190.060 M62.834 191.364 C 62.313 191.919,62.008 192.641,62.117 193.064 C 62.282 193.701,62.313 193.688,62.354 192.962 C 62.407 192.005,63.425 190.974,64.600 190.688 C 65.375 190.499,65.375 190.491,64.570 190.446 C 64.113 190.421,63.332 190.834,62.834 191.364 M191.214 191.574 C 190.986 191.999,190.818 192.764,190.841 193.274 C 190.874 194.017,190.940 193.956,191.177 192.965 C 191.339 192.286,191.602 191.521,191.760 191.265 C 191.918 191.009,191.953 190.800,191.838 190.800 C 191.722 190.800,191.442 191.148,191.214 191.574 M103.300 191.491 C 104.125 191.578,105.475 191.578,106.300 191.491 C 107.125 191.405,106.450 191.334,104.800 191.334 C 103.150 191.334,102.475 191.405,103.300 191.491 M136.300 191.493 C 137.235 191.577,138.765 191.577,139.700 191.493 C 140.635 191.409,139.870 191.340,138.000 191.340 C 136.130 191.340,135.365 191.409,136.300 191.493 M224.500 191.491 C 225.325 191.578,226.675 191.578,227.500 191.491 C 228.325 191.405,227.650 191.334,226.000 191.334 C 224.350 191.334,223.675 191.405,224.500 191.491 M254.691 191.489 C 255.401 191.577,256.661 191.579,257.491 191.492 C 258.321 191.405,257.740 191.333,256.200 191.331 C 254.660 191.329,253.981 191.400,254.691 191.489 M307.891 191.489 C 308.601 191.577,309.861 191.579,310.691 191.492 C 311.521 191.405,310.940 191.333,309.400 191.331 C 307.860 191.329,307.181 191.400,307.891 191.489 M337.891 191.489 C 338.601 191.577,339.861 191.579,340.691 191.492 C 341.521 191.405,340.940 191.333,339.400 191.331 C 337.860 191.329,337.181 191.400,337.891 191.489 M131.315 192.579 C 127.806 194.213,123.559 199.414,123.623 202.000 C 123.631 202.330,123.980 201.722,124.399 200.650 C 125.989 196.579,128.326 194.200,132.368 192.537 C 133.596 192.032,134.330 191.616,134.000 191.613 C 133.670 191.610,132.462 192.045,131.315 192.579 M260.094 191.998 C 260.696 192.180,261.821 192.719,262.594 193.197 L 264.000 194.065 265.347 193.233 C 266.088 192.775,267.033 192.386,267.447 192.368 C 267.893 192.350,267.990 192.253,267.686 192.130 C 267.404 192.017,266.447 192.214,265.560 192.569 C 264.035 193.180,263.850 193.171,262.123 192.407 C 261.119 191.963,260.006 191.615,259.649 191.634 C 259.292 191.653,259.492 191.817,260.094 191.998 M343.800 192.154 C 345.392 192.848,345.901 193.521,346.103 195.202 L 346.272 196.600 346.323 195.200 C 346.393 193.300,344.845 191.565,343.126 191.616 C 342.837 191.624,343.140 191.867,343.800 192.154 M73.600 193.400 C 74.346 194.170,75.047 194.800,75.157 194.800 C 75.267 194.800,74.746 194.170,74.000 193.400 C 73.254 192.630,72.553 192.000,72.443 192.000 C 72.333 192.000,72.854 192.630,73.600 193.400 M98.300 192.629 C 96.749 193.470,96.925 193.761,98.500 192.959 C 100.008 192.193,100.275 191.994,99.767 192.016 C 99.565 192.025,98.905 192.301,98.300 192.629 M111.000 192.860 C 111.880 193.314,113.485 194.521,114.567 195.542 C 115.648 196.564,116.173 196.918,115.732 196.329 C 114.353 194.486,110.826 191.957,109.720 192.018 C 109.544 192.027,110.120 192.406,111.000 192.860 M143.900 192.791 C 144.395 193.253,144.800 193.834,144.800 194.082 C 144.800 194.330,144.905 194.429,145.032 194.301 C 145.397 193.936,144.499 192.523,143.711 192.222 C 143.170 192.016,143.215 192.151,143.900 192.791 M173.923 192.285 C 175.333 192.555,175.872 194.107,175.033 195.484 L 174.353 196.600 175.176 195.656 C 176.560 194.070,175.718 191.916,173.769 192.054 C 173.168 192.097,173.202 192.148,173.923 192.285 M232.400 193.033 C 233.390 193.596,234.737 194.539,235.394 195.128 C 236.436 196.064,236.487 196.078,235.794 195.239 C 234.924 194.187,231.694 191.997,231.022 192.005 C 230.790 192.007,231.410 192.470,232.400 193.033 M271.471 192.584 C 272.169 192.888,273.017 193.646,273.355 194.268 C 273.692 194.891,273.975 195.161,273.984 194.869 C 274.008 194.084,271.776 191.998,270.931 192.016 C 270.466 192.026,270.663 192.233,271.471 192.584 M290.264 192.581 C 290.959 192.884,291.613 193.462,291.718 193.866 C 291.879 194.492,291.914 194.500,291.954 193.923 C 292.005 193.169,290.558 191.991,289.611 192.016 C 289.275 192.024,289.569 192.279,290.264 192.581 M246.789 193.082 C 245.521 193.955,244.827 194.842,244.819 195.600 C 244.815 195.930,245.037 195.755,245.312 195.212 C 245.587 194.669,246.421 193.814,247.165 193.312 C 247.909 192.810,248.352 192.400,248.148 192.400 C 247.945 192.400,247.333 192.707,246.789 193.082 M284.496 193.300 C 283.633 194.222,282.778 196.080,282.828 196.926 C 282.844 197.187,283.117 196.688,283.436 195.818 C 283.754 194.948,284.403 193.823,284.877 193.318 C 285.351 192.813,285.649 192.400,285.539 192.400 C 285.429 192.400,284.960 192.805,284.496 193.300 M329.360 193.760 C 328.319 194.801,328.011 195.434,328.046 196.460 L 328.092 197.800 328.380 196.321 C 328.729 194.527,329.415 193.645,331.000 192.954 C 331.812 192.600,331.961 192.426,331.460 192.416 C 331.053 192.407,330.108 193.012,329.360 193.760 M165.000 195.600 C 162.155 198.467,161.148 198.930,160.432 197.700 C 160.075 197.086,160.023 197.080,160.012 197.651 C 159.966 200.118,162.028 199.276,165.769 195.300 C 168.936 191.934,168.449 192.124,165.000 195.600 M301.093 193.900 C 300.295 194.505,299.239 195.540,298.746 196.200 C 298.088 197.080,298.322 196.948,299.624 195.705 C 300.601 194.773,301.760 193.744,302.200 193.418 C 302.640 193.092,302.897 192.820,302.771 192.813 C 302.645 192.806,301.890 193.295,301.093 193.900 M316.000 192.878 C 318.558 195.257,320.072 196.433,318.800 195.053 C 318.030 194.218,317.040 193.345,316.600 193.113 C 316.160 192.881,315.890 192.775,316.000 192.878 M94.800 195.400 C 93.828 196.390,93.123 197.200,93.233 197.200 C 93.343 197.200,94.228 196.390,95.200 195.400 C 96.172 194.410,96.877 193.600,96.767 193.600 C 96.657 193.600,95.772 194.410,94.800 195.400 M216.355 195.100 C 215.081 196.508,214.256 197.600,214.466 197.600 C 214.557 197.600,215.308 196.790,216.135 195.800 C 217.787 193.824,217.935 193.353,216.355 195.100 M262.759 196.578 C 261.549 198.343,260.503 198.800,257.670 198.800 C 255.460 198.800,253.600 199.542,253.600 200.423 C 253.600 200.630,253.960 200.440,254.400 200.000 C 255.024 199.376,255.733 199.200,257.626 199.200 C 260.266 199.200,261.205 198.855,262.931 197.251 L 264.062 196.200 265.031 197.322 C 266.203 198.680,266.288 198.277,265.204 196.500 C 264.208 194.865,263.926 194.874,262.759 196.578 M144.832 196.118 C 144.814 196.513,144.340 197.297,143.777 197.859 C 143.215 198.422,142.979 198.807,143.253 198.716 C 144.053 198.449,145.314 196.533,145.079 195.941 C 144.933 195.576,144.853 195.633,144.832 196.118 M171.218 199.892 C 167.378 204.060,167.210 205.638,170.308 208.479 C 170.992 209.107,170.849 208.786,169.856 207.469 C 167.614 204.496,167.824 203.829,172.556 198.900 C 173.665 197.745,174.459 196.800,174.320 196.800 C 174.181 196.800,172.785 198.191,171.218 199.892 M274.456 197.200 C 274.456 197.530,274.611 198.160,274.800 198.600 C 275.017 199.104,275.144 199.178,275.144 198.800 C 275.144 198.470,274.989 197.840,274.800 197.400 C 274.583 196.896,274.456 196.822,274.456 197.200 M320.956 198.973 C 321.420 200.155,321.871 201.054,321.958 200.970 C 322.173 200.762,320.814 197.256,320.425 197.015 C 320.253 196.909,320.492 197.790,320.956 198.973 M344.914 197.880 C 344.427 198.386,344.174 198.800,344.352 198.800 C 344.742 198.800,346.198 197.245,345.964 197.077 C 345.874 197.013,345.401 197.374,344.914 197.880 M244.573 207.000 C 244.573 212.500,244.630 214.805,244.699 212.123 C 244.768 209.441,244.768 204.941,244.699 202.123 C 244.630 199.305,244.574 201.500,244.573 207.000 M92.181 198.837 C 91.829 199.518,91.612 200.145,91.699 200.232 C 91.786 200.319,92.156 199.762,92.522 198.995 C 93.344 197.270,93.059 197.138,92.181 198.837 M296.981 198.837 C 296.629 199.518,296.412 200.145,296.499 200.232 C 296.586 200.319,296.956 199.762,297.322 198.995 C 298.144 197.270,297.859 197.138,296.981 198.837 M198.833 198.551 C 199.242 198.921,202.400 200.395,202.400 200.216 C 202.400 199.989,199.381 198.400,198.949 198.400 C 198.794 198.400,198.742 198.468,198.833 198.551 M237.639 198.400 C 237.624 198.510,237.867 199.410,238.179 200.400 C 238.491 201.390,238.750 201.840,238.755 201.400 C 238.763 200.703,237.708 197.871,237.639 198.400 M308.000 198.682 C 304.903 199.815,305.009 203.683,308.121 203.080 C 308.907 202.927,308.892 202.903,307.980 202.854 C 304.928 202.691,305.522 199.802,308.800 198.870 C 309.570 198.651,309.840 198.470,309.400 198.468 C 308.960 198.465,308.330 198.562,308.000 198.682 M104.100 199.076 C 104.485 199.176,105.115 199.176,105.500 199.076 C 105.885 198.975,105.570 198.893,104.800 198.893 C 104.030 198.893,103.715 198.975,104.100 199.076 M136.000 199.218 C 135.562 199.515,135.724 199.552,136.600 199.356 C 138.071 199.027,138.390 198.798,137.367 198.806 C 136.945 198.809,136.330 198.995,136.000 199.218 M140.500 199.076 C 140.885 199.176,141.515 199.176,141.900 199.076 C 142.285 198.975,141.970 198.893,141.200 198.893 C 140.430 198.893,140.115 198.975,140.500 199.076 M222.982 199.782 C 221.352 201.412,222.239 203.233,224.631 203.168 C 225.852 203.135,225.709 203.026,223.944 202.638 C 222.057 202.225,222.059 200.430,223.947 199.404 C 224.526 199.089,224.767 198.825,224.482 198.816 C 224.197 198.807,223.522 199.242,222.982 199.782 M228.146 199.629 C 229.850 200.969,229.341 202.741,227.220 202.854 C 226.308 202.903,226.293 202.927,227.079 203.080 C 228.384 203.333,229.600 202.523,229.600 201.402 C 229.600 200.462,228.240 198.800,227.471 198.800 C 227.262 198.800,227.566 199.173,228.146 199.629 M266.254 199.600 C 266.389 200.150,266.745 201.140,267.045 201.800 C 267.484 202.764,267.543 202.803,267.346 202.000 C 267.211 201.450,266.855 200.460,266.555 199.800 C 266.116 198.836,266.057 198.797,266.254 199.600 M281.636 200.436 C 281.366 201.339,281.218 202.152,281.308 202.242 C 281.398 202.332,281.693 201.666,281.964 200.764 C 282.234 199.861,282.382 199.048,282.292 198.958 C 282.202 198.868,281.907 199.534,281.636 200.436 M311.250 199.402 C 313.265 200.498,313.006 202.267,310.752 202.799 C 309.492 203.096,309.475 203.121,310.500 203.159 C 311.579 203.199,313.200 202.013,313.200 201.182 C 313.200 200.579,311.331 198.797,310.718 198.816 C 310.433 198.825,310.672 199.089,311.250 199.402 M339.900 199.089 C 340.615 199.178,341.785 199.178,342.500 199.089 C 343.215 199.001,342.630 198.928,341.200 198.928 C 339.770 198.928,339.185 199.001,339.900 199.089 M101.524 200.300 C 100.269 201.646,99.594 202.910,99.618 203.874 C 99.627 204.273,99.890 203.880,100.201 203.000 C 100.512 202.120,101.317 200.905,101.990 200.300 C 102.662 199.695,103.063 199.200,102.881 199.200 C 102.699 199.200,102.088 199.695,101.524 200.300 M107.145 199.847 C 107.653 200.202,108.412 201.057,108.833 201.747 C 109.253 202.436,109.598 202.781,109.599 202.514 C 109.600 201.870,107.241 199.200,106.670 199.200 C 106.423 199.200,106.637 199.491,107.145 199.847 M184.000 200.547 C 184.770 201.382,185.760 202.255,186.200 202.487 C 186.640 202.719,186.910 202.825,186.800 202.722 C 184.242 200.343,182.728 199.167,184.000 200.547 M133.641 201.014 C 132.959 201.792,132.405 202.647,132.412 202.914 C 132.419 203.181,132.623 203.040,132.866 202.600 C 133.108 202.160,133.767 201.305,134.328 200.700 C 134.890 200.095,135.245 199.600,135.116 199.600 C 134.988 199.600,134.324 200.236,133.641 201.014 M212.846 200.839 C 212.601 201.543,212.412 202.408,212.427 202.760 C 212.441 203.112,212.704 202.597,213.009 201.616 C 213.649 199.562,213.515 198.922,212.846 200.839 M86.109 202.000 C 86.109 202.990,86.187 203.395,86.282 202.900 C 86.378 202.405,86.378 201.595,86.282 201.100 C 86.187 200.605,86.109 201.010,86.109 202.000 M275.815 201.800 C 276.775 206.918,279.906 208.010,280.977 203.600 C 281.110 203.050,280.835 203.365,280.365 204.300 C 278.986 207.045,277.811 206.587,276.388 202.750 C 275.949 201.568,275.692 201.140,275.815 201.800 M295.856 201.684 C 295.721 202.188,295.627 202.960,295.646 203.400 C 295.665 203.840,295.845 203.498,296.046 202.640 C 296.436 200.978,296.270 200.140,295.856 201.684 M253.368 209.000 C 253.368 213.400,253.426 215.255,253.498 213.121 C 253.570 210.988,253.570 207.388,253.499 205.121 C 253.427 202.855,253.368 204.600,253.368 209.000 M336.569 209.800 C 336.570 214.420,336.628 216.255,336.699 213.878 C 336.770 211.501,336.769 207.721,336.698 205.478 C 336.627 203.235,336.569 205.180,336.569 209.800 M322.093 203.200 C 322.093 203.970,322.175 204.285,322.276 203.900 C 322.376 203.515,322.376 202.885,322.276 202.500 C 322.175 202.115,322.093 202.430,322.093 203.200 M238.800 204.546 C 238.800 206.941,237.837 208.620,236.292 208.919 C 235.409 209.089,235.409 209.092,236.264 209.146 C 237.809 209.243,239.200 207.075,239.200 204.569 C 239.200 203.376,239.110 202.400,239.000 202.400 C 238.890 202.400,238.800 203.366,238.800 204.546 M123.293 204.000 C 123.293 204.770,123.375 205.085,123.476 204.700 C 123.576 204.315,123.576 203.685,123.476 203.300 C 123.375 202.915,123.293 203.230,123.293 204.000 M288.844 204.444 C 288.598 205.151,288.466 205.800,288.552 205.885 C 288.638 205.971,288.909 205.462,289.156 204.756 C 289.402 204.049,289.534 203.400,289.448 203.315 C 289.362 203.229,289.091 203.738,288.844 204.444 M212.134 206.400 C 212.134 208.050,212.205 208.725,212.291 207.900 C 212.378 207.075,212.378 205.725,212.291 204.900 C 212.205 204.075,212.134 204.750,212.134 206.400 M85.693 205.600 C 85.693 206.370,85.775 206.685,85.876 206.300 C 85.976 205.915,85.976 205.285,85.876 204.900 C 85.775 204.515,85.693 204.830,85.693 205.600 M90.501 206.200 C 90.505 207.080,90.587 207.393,90.683 206.895 C 90.779 206.398,90.775 205.678,90.675 205.295 C 90.575 204.913,90.496 205.320,90.501 206.200 M99.301 206.200 C 99.305 207.080,99.387 207.393,99.483 206.895 C 99.579 206.398,99.575 205.678,99.475 205.295 C 99.375 204.913,99.296 205.320,99.301 206.200 M295.309 206.400 C 295.309 207.390,295.387 207.795,295.482 207.300 C 295.578 206.805,295.578 205.995,295.482 205.500 C 295.387 205.005,295.309 205.410,295.309 206.400 M192.833 205.351 C 193.242 205.721,196.400 207.195,196.400 207.016 C 196.400 206.789,193.381 205.200,192.949 205.200 C 192.794 205.200,192.742 205.268,192.833 205.351 M321.857 206.816 C 321.681 207.693,321.248 208.192,320.307 208.601 C 319.518 208.944,319.285 209.175,319.718 209.184 C 320.684 209.205,322.400 207.435,322.400 206.418 C 322.400 205.225,322.136 205.418,321.857 206.816 M84.880 208.680 C 84.288 210.609,84.575 210.895,85.200 209.000 C 85.464 208.201,85.602 207.469,85.507 207.374 C 85.412 207.278,85.130 207.866,84.880 208.680 M197.284 207.803 C 197.440 208.045,197.744 208.683,197.959 209.222 C 198.206 209.840,198.359 209.959,198.375 209.544 C 198.389 209.184,198.085 208.545,197.700 208.125 C 197.315 207.706,197.128 207.560,197.284 207.803 M123.301 209.000 C 123.305 209.880,123.387 210.193,123.483 209.695 C 123.579 209.198,123.575 208.478,123.475 208.095 C 123.375 207.713,123.296 208.120,123.301 209.000 M109.646 208.467 C 109.621 208.834,109.496 209.464,109.370 209.867 C 109.152 210.562,109.163 210.563,109.597 209.887 C 109.848 209.496,109.973 208.866,109.873 208.487 C 109.711 207.868,109.688 207.866,109.646 208.467 M118.449 209.000 C 118.416 209.440,118.296 210.250,118.183 210.800 L 117.977 211.800 118.406 210.819 C 118.642 210.279,118.761 209.469,118.672 209.019 C 118.513 208.221,118.507 208.221,118.449 209.000 M73.000 210.668 C 72.120 211.457,71.760 211.916,72.200 211.688 C 72.941 211.304,75.151 209.179,74.770 209.217 C 74.676 209.226,73.880 209.879,73.000 210.668 M223.017 209.738 C 221.699 210.702,223.538 213.607,225.462 213.599 C 225.648 213.598,225.209 213.237,224.487 212.796 C 220.888 210.602,222.349 209.649,229.540 209.499 L 235.400 209.377 229.576 209.288 C 225.216 209.222,223.568 209.335,223.017 209.738 M306.489 209.823 C 305.113 210.787,306.738 213.601,308.669 213.599 C 309.122 213.599,308.868 213.333,308.000 212.899 C 306.996 212.398,306.565 211.893,306.475 211.114 C 306.314 209.722,306.720 209.627,313.400 209.485 L 318.600 209.374 312.989 209.287 C 308.456 209.217,307.207 209.320,306.489 209.823 M132.401 209.947 C 132.400 210.658,135.342 213.600,136.053 213.599 C 136.354 213.598,136.013 213.239,135.296 212.802 C 134.579 212.365,133.635 211.421,133.198 210.704 C 132.761 209.987,132.402 209.646,132.401 209.947 M172.770 211.700 C 173.719 212.965,174.576 214.000,174.673 214.000 C 174.946 214.000,172.315 210.425,171.641 209.882 C 171.313 209.617,171.821 210.435,172.770 211.700 M62.032 210.824 C 62.014 211.166,62.280 211.796,62.622 212.224 C 63.234 212.988,63.238 212.987,62.876 212.200 C 62.674 211.760,62.408 211.130,62.286 210.800 C 62.093 210.282,62.059 210.285,62.032 210.824 M198.032 210.838 C 197.990 211.686,196.755 212.766,195.343 213.189 C 194.372 213.480,194.334 213.536,195.094 213.566 C 196.229 213.609,198.593 211.542,198.289 210.771 C 198.108 210.314,198.057 210.328,198.032 210.838 M108.404 211.592 C 108.171 212.028,107.489 212.651,106.890 212.976 C 106.290 213.302,105.985 213.575,106.211 213.584 C 106.842 213.609,108.345 212.450,108.811 211.579 C 109.040 211.151,109.138 210.800,109.028 210.800 C 108.918 210.800,108.637 211.157,108.404 211.592 M123.613 211.200 C 123.595 213.162,127.038 218.043,129.291 219.249 C 129.768 219.504,129.126 218.743,127.864 217.557 C 126.210 216.002,125.296 214.730,124.594 213.000 C 124.058 211.680,123.616 210.870,123.613 211.200 M101.903 212.700 C 102.421 213.195,103.060 213.595,103.322 213.588 C 103.585 213.581,103.440 213.376,103.000 213.132 C 102.560 212.888,101.921 212.488,101.580 212.244 C 101.240 212.000,101.385 212.205,101.903 212.700 M270.828 211.800 C 270.828 212.020,271.086 212.650,271.400 213.200 C 271.714 213.750,271.972 214.020,271.972 213.800 C 271.972 213.580,271.714 212.950,271.400 212.400 C 271.086 211.850,270.828 211.580,270.828 211.800 M81.255 214.830 C 79.739 216.511,78.273 217.624,76.255 218.628 C 74.685 219.409,73.850 219.924,74.400 219.773 C 77.108 219.027,82.089 215.277,83.248 213.109 C 83.820 212.042,83.591 212.239,81.255 214.830 M182.581 213.458 C 182.041 214.041,181.600 214.684,181.600 214.889 C 181.600 215.094,182.057 214.718,182.616 214.054 C 183.330 213.205,184.073 212.800,185.116 212.690 L 186.600 212.534 185.081 212.467 C 183.900 212.415,183.343 212.636,182.581 213.458 M285.265 213.417 C 284.595 214.888,284.723 215.202,285.447 213.865 C 285.786 213.240,285.988 212.654,285.896 212.563 C 285.805 212.471,285.521 212.856,285.265 213.417 M213.205 213.000 C 213.199 214.158,216.285 218.105,217.800 218.876 C 218.240 219.100,217.918 218.705,217.084 217.999 C 216.250 217.293,215.037 215.789,214.388 214.658 C 213.739 213.526,213.206 212.780,213.205 213.000 M140.192 213.899 C 143.228 214.013,143.934 214.171,144.747 214.917 C 145.701 215.793,145.705 215.793,145.265 214.947 C 144.641 213.746,143.996 213.589,140.067 213.682 L 136.600 213.765 140.192 213.899 M227.511 213.893 C 228.451 213.978,229.891 213.977,230.711 213.891 C 231.530 213.805,230.760 213.736,229.000 213.737 C 227.240 213.739,226.570 213.809,227.511 213.893 M235.058 214.069 C 235.529 214.298,236.102 214.871,236.331 215.342 C 236.559 215.814,236.758 215.975,236.773 215.700 C 236.788 215.425,236.440 214.840,236.000 214.400 C 235.560 213.960,234.975 213.612,234.700 213.627 C 234.425 213.642,234.586 213.841,235.058 214.069 M311.111 213.893 C 312.051 213.978,313.491 213.977,314.311 213.891 C 315.130 213.805,314.360 213.736,312.600 213.737 C 310.840 213.739,310.170 213.809,311.111 213.893 M319.018 214.582 C 320.771 216.335,320.185 219.209,317.869 220.217 C 317.061 220.568,316.865 220.774,317.331 220.784 C 318.595 220.811,320.400 218.635,320.400 217.085 C 320.400 215.766,319.150 213.600,318.389 213.600 C 318.195 213.600,318.478 214.042,319.018 214.582 M297.593 215.102 C 298.156 216.263,300.537 218.644,301.698 219.207 C 302.293 219.495,302.192 219.330,301.403 218.722 C 300.745 218.215,299.935 217.528,299.603 217.197 C 299.272 216.865,298.585 216.055,298.078 215.397 C 297.470 214.608,297.305 214.507,297.593 215.102 M92.804 214.909 C 92.797 215.397,96.061 218.807,96.975 219.267 C 97.429 219.496,97.133 219.118,96.317 218.427 C 95.502 217.736,94.379 216.592,93.822 215.885 C 93.265 215.178,92.807 214.739,92.804 214.909 M114.333 217.242 C 113.086 218.535,112.377 219.426,112.758 219.223 C 113.479 218.837,116.800 215.374,116.800 215.009 C 116.800 214.690,116.757 214.729,114.333 217.242 M166.324 216.800 C 166.974 217.790,167.923 218.960,168.432 219.400 C 169.051 219.935,168.935 219.670,168.083 218.600 C 165.590 215.468,165.156 215.024,166.324 216.800 M272.419 215.320 C 272.355 216.414,275.266 220.400,276.129 220.400 C 276.337 220.400,276.028 220.023,275.442 219.562 C 274.856 219.101,273.940 217.886,273.407 216.862 C 272.874 215.838,272.429 215.144,272.419 215.320 M176.230 217.009 C 177.319 219.617,175.912 220.658,171.764 220.314 C 170.540 220.212,169.795 220.277,170.083 220.460 C 171.686 221.477,176.016 220.665,176.800 219.200 C 177.191 218.469,176.427 215.600,175.841 215.600 C 175.731 215.600,175.906 216.234,176.230 217.009 M145.654 217.224 C 145.583 219.087,144.939 219.905,142.995 220.597 C 142.090 220.919,141.746 221.172,142.200 221.181 C 144.395 221.225,146.303 218.928,145.888 216.741 C 145.761 216.074,145.693 216.215,145.654 217.224 M328.046 217.131 C 327.938 220.264,332.645 222.095,335.346 219.971 C 335.926 219.515,336.400 218.983,336.400 218.789 C 336.400 218.595,335.958 218.878,335.418 219.418 C 333.195 221.641,328.981 220.415,328.395 217.375 L 328.092 215.800 328.046 217.131 M236.685 217.476 C 236.546 218.170,236.020 219.135,235.516 219.619 C 234.660 220.442,234.655 220.471,235.445 220.065 C 236.366 219.592,237.383 217.550,237.109 216.727 C 237.015 216.444,236.824 216.781,236.685 217.476 M204.407 218.023 C 203.641 218.678,202.111 219.577,201.007 220.021 C 199.848 220.487,199.507 220.726,200.200 220.587 C 201.679 220.289,204.341 218.771,205.362 217.641 C 206.423 216.470,206.051 216.618,204.407 218.023 M53.206 218.064 C 53.199 218.872,55.402 220.800,56.331 220.799 C 56.699 220.799,56.373 220.484,55.606 220.099 C 54.839 219.715,53.986 218.950,53.711 218.400 C 53.377 217.730,53.210 217.620,53.206 218.064 M244.832 217.867 C 244.772 218.749,245.295 219.623,246.147 220.065 L 247.000 220.509 246.151 219.554 C 245.684 219.029,245.203 218.330,245.082 218.000 C 244.962 217.670,244.849 217.610,244.832 217.867 M252.800 218.008 C 252.800 218.305,252.395 218.989,251.900 219.529 L 251.000 220.509 251.873 220.055 C 252.754 219.597,253.474 218.141,253.037 217.703 C 252.906 217.573,252.800 217.710,252.800 218.008 M181.809 218.479 C 182.016 219.019,183.583 220.167,183.786 219.928 C 183.846 219.857,183.379 219.382,182.749 218.871 C 182.118 218.359,181.695 218.183,181.809 218.479 M281.878 219.413 C 281.260 219.956,280.914 220.400,281.108 220.400 C 281.302 220.400,281.883 219.950,282.400 219.400 C 283.595 218.128,283.331 218.134,281.878 219.413 M221.800 220.800 C 222.240 220.989,222.960 221.138,223.400 221.132 C 224.043 221.123,224.004 221.057,223.200 220.800 C 221.832 220.362,220.781 220.362,221.800 220.800 M248.105 220.687 C 248.714 220.779,249.614 220.777,250.105 220.682 C 250.597 220.587,250.100 220.511,249.000 220.514 C 247.900 220.517,247.497 220.595,248.105 220.687 M277.705 220.687 C 278.314 220.779,279.214 220.777,279.705 220.682 C 280.197 220.587,279.700 220.511,278.600 220.514 C 277.500 220.517,277.097 220.595,277.705 220.687 M58.691 221.089 C 59.401 221.177,60.661 221.179,61.491 221.092 C 62.321 221.005,61.740 220.933,60.200 220.931 C 58.660 220.929,57.981 221.000,58.691 221.089 M65.907 221.090 C 66.626 221.179,67.706 221.177,68.307 221.086 C 68.908 220.995,68.320 220.922,67.000 220.924 C 65.680 220.926,65.188 221.001,65.907 221.090 M103.700 221.487 C 104.305 221.578,105.295 221.578,105.900 221.487 C 106.505 221.395,106.010 221.320,104.800 221.320 C 103.590 221.320,103.095 221.395,103.700 221.487 M136.691 221.489 C 137.401 221.577,138.661 221.579,139.491 221.492 C 140.321 221.405,139.740 221.333,138.200 221.331 C 136.660 221.329,135.981 221.400,136.691 221.489 M191.312 221.495 C 192.364 221.577,193.984 221.576,194.912 221.492 C 195.840 221.408,194.980 221.341,193.000 221.342 C 191.020 221.343,190.260 221.412,191.312 221.495 M226.100 221.491 C 226.925 221.578,228.275 221.578,229.100 221.491 C 229.925 221.405,229.250 221.334,227.600 221.334 C 225.950 221.334,225.275 221.405,226.100 221.491 M309.300 221.491 C 310.125 221.578,311.475 221.578,312.300 221.491 C 313.125 221.405,312.450 221.334,310.800 221.334 C 309.150 221.334,308.475 221.405,309.300 221.491  M -25 0 L -5 0 L -5 20 L -25 20 Z M 405 0 L 425 0 L 425 20 L 405 20 Z" stroke="none" fill="#747474" fill-rule="evenodd" transform="translate(490,460)"></path></g></svg>